<svg width="73" height="40" viewBox="0 0 73 40" fill="none" xmlns="http://www.w3.org/2000/svg">
<path d="M20.4363 39.253C15.003 39.253 10.3846 37.3513 6.58125 33.548C2.7779 29.7446 0.876221 25.1263 0.876221 19.6929C0.876221 14.2595 2.7779 9.64119 6.58125 5.83784C10.3846 2.03449 15.003 0.132812 20.4363 0.132812H53.0365C58.4698 0.132812 63.0882 2.03449 66.8915 5.83784C70.6949 9.64119 72.5965 14.2595 72.5965 19.6929C72.5965 25.1263 70.6949 29.7446 66.8915 33.548C63.0882 37.3513 58.4698 39.253 53.0365 39.253H20.4363ZM20.4363 32.733H53.0365C56.6225 32.733 59.6923 31.4561 62.246 28.9024C64.7997 26.3488 66.0765 23.2789 66.0765 19.6929C66.0765 16.1069 64.7997 13.037 62.246 10.4834C59.6923 7.92968 56.6225 6.65284 53.0365 6.65284H20.4363C16.8503 6.65284 13.7804 7.92968 11.2268 10.4834C8.67309 13.037 7.39625 16.1069 7.39625 19.6929C7.39625 23.2789 8.67309 26.3488 11.2268 28.9024C13.7804 31.4561 16.8503 32.733 20.4363 32.733ZM53.0365 29.4729C55.7531 29.4729 58.0623 28.5221 59.964 26.6204C61.8657 24.7188 62.8165 22.4096 62.8165 19.6929C62.8165 16.9762 61.8657 14.667 59.964 12.7654C58.0623 10.8637 55.7531 9.91286 53.0365 9.91286C50.3198 9.91286 48.0106 10.8637 46.1089 12.7654C44.2072 14.667 43.2564 16.9762 43.2564 19.6929C43.2564 22.4096 44.2072 24.7188 46.1089 26.6204C48.0106 28.5221 50.3198 29.4729 53.0365 29.4729Z" fill="url(#paint0_linear_477_1372)"/>
<defs>
<linearGradient id="paint0_linear_477_1372" x1="0.876217" y1="-4.52435" x2="53.1215" y2="65.4389" gradientUnits="userSpaceOnUse">
<stop offset="0.181667" stop-color="#DCA64E"/>
<stop offset="0.494792" stop-color="#FEFAB7"/>
<stop offset="0.896667" stop-color="#D6993F"/>
</linearGradient>
</defs>
</svg>
