<svg width="82" height="74" viewBox="0 0 82 74" fill="none" xmlns="http://www.w3.org/2000/svg">
<path d="M81.2312 39.5319C81.2312 37.9515 81.118 36.4214 80.9443 34.9367C78.6618 15.2624 61.9747 -0.000338027 41.694 -0.00537109H38.5936C17.6636 -0.00285456 0.704665 16.9561 0.702148 37.8861C0.702148 39.8501 1.08899 41.7949 1.84059 43.6094C2.59218 45.4239 3.69382 47.0726 5.08259 48.4614C7.88734 51.2661 11.6914 52.8418 15.6579 52.8418H18.7809C19.6273 56.4221 21.6569 59.612 24.5414 61.8955C27.4259 64.1789 30.9964 65.4223 34.6754 65.4245H52.5528L60.3943 73.266C60.6583 73.5296 60.9944 73.7091 61.3603 73.7818C61.7262 73.8545 62.1055 73.8171 62.4501 73.6744C62.7948 73.5317 63.0895 73.29 63.2969 72.98C63.5043 72.6699 63.6152 72.3053 63.6155 71.9322V65.2156C67.4838 64.734 71.1286 63.138 74.1061 60.6221C77.0836 58.1061 79.2653 54.7787 80.3857 51.045C80.7455 49.8421 80.9519 48.5738 81.0827 47.2828L81.0903 47.2627C81.1608 47.0312 81.2312 46.8021 81.2312 46.5505C81.2312 46.397 81.2212 46.2435 81.2111 46.0925L81.1935 45.8031C81.1935 45.7225 81.2035 45.6445 81.2111 45.569C81.2212 45.4759 81.2312 45.3853 81.2312 45.2922V39.5319ZM75.564 49.6081C74.6349 52.7231 72.7253 55.455 70.1192 57.3978C67.513 59.3406 64.3495 60.3905 61.0989 60.3914H34.6754C31.8512 60.3911 29.1292 59.3352 27.0437 57.4308C24.9582 55.5265 23.66 52.9113 23.4038 50.0988L23.3887 49.9377C23.4728 46.6693 24.8324 43.5635 27.1768 41.2846C29.5211 39.0056 32.6641 37.7343 35.9336 37.7426C36.601 37.7426 37.2411 37.4775 37.7131 37.0056C38.185 36.5336 38.4501 35.8935 38.4501 35.2261C38.4501 34.5587 38.185 33.9186 37.7131 33.4466C37.2411 32.9747 36.601 32.7096 35.9336 32.7096C32.9779 32.7057 30.0692 33.4493 27.4781 34.8713C26.9824 33.7599 26.2901 32.7471 25.4346 31.8816C24.9628 31.4097 24.3228 31.1447 23.6555 31.1447C22.9881 31.1447 22.3481 31.4097 21.8763 31.8816C21.4044 32.3535 21.1393 32.9935 21.1393 33.6608C21.1393 34.3281 21.4044 34.9681 21.8763 35.44C22.591 36.1572 23.0766 37.0757 23.2604 38.105C20.7004 40.7616 19.0416 44.1566 18.5192 47.8088H15.6579C14.3542 47.8107 13.063 47.5548 11.8585 47.056C10.654 46.5572 9.55995 45.8252 8.63929 44.9022C7.71665 43.9818 6.98508 42.8882 6.48669 41.6841C5.98829 40.48 5.7329 39.1892 5.73522 37.8861C5.73522 28.8039 9.40935 20.605 15.3584 14.6509C18.406 11.5946 22.0277 9.17106 26.0152 7.51954C30.0028 5.86802 34.2776 5.02117 38.5936 5.0277H41.694C58.5296 5.02266 72.5114 17.1071 75.5439 33.0594C72.7708 30.3504 69.2289 28.5636 65.4022 27.9432C66.668 25.623 67.3903 22.958 67.3903 20.1269C67.3903 19.4595 67.1252 18.8194 66.6532 18.3474C66.1813 17.8755 65.5412 17.6104 64.8737 17.6104C64.2063 17.6104 63.5662 17.8755 63.0943 18.3474C62.6223 18.8194 62.3572 19.4595 62.3572 20.1269C62.3598 21.6144 62.0681 23.0878 61.4989 24.4621C60.9296 25.8364 60.0941 27.0845 59.0404 28.1345C57.9904 29.1882 56.7423 30.0237 55.368 30.593C53.9937 31.1622 52.5203 31.4539 51.0328 31.4513C50.3654 31.4513 49.7253 31.7164 49.2534 32.1884C48.7814 32.6603 48.5163 33.3004 48.5163 33.9678C48.5163 34.6353 48.7814 35.2753 49.2534 35.7473C49.7253 36.2192 50.3654 36.4844 51.0328 36.4844C54.9234 36.4867 58.6863 35.0958 61.64 32.5636L61.6803 32.5762C61.8979 32.6546 62.1261 32.6995 62.3572 32.7096C66.1874 32.7096 69.6325 34.2547 72.144 36.7637C74.5553 39.176 75.9864 42.3967 76.1604 45.8031C76.1247 47.0917 75.9242 48.3704 75.564 49.6081Z" fill="url(#paint0_linear_477_1361)"/>
<defs>
<linearGradient id="paint0_linear_477_1361" x1="0.702144" y1="-8.79386" x2="100.93" y2="71.0662" gradientUnits="userSpaceOnUse">
<stop offset="0.181667" stop-color="#DCA64E"/>
<stop offset="0.494792" stop-color="#FEFAB7"/>
<stop offset="0.896667" stop-color="#D6993F"/>
</linearGradient>
</defs>
</svg>
