<svg width="80" height="80" viewBox="0 0 80 80" fill="none" xmlns="http://www.w3.org/2000/svg">
<path d="M64.2553 28.3814C63.1954 29.4345 61.7619 30.0256 60.2677 30.0256C58.7736 30.0256 57.3401 29.4345 56.2801 28.3814L51.5972 23.6985C50.5431 22.6387 49.9514 21.2047 49.9514 19.71C49.9514 18.2152 50.5431 16.7813 51.5972 15.7215L62.1968 5.11669C62.2177 5.09651 62.2334 5.07146 62.2423 5.04376C62.2512 5.01607 62.2532 4.98659 62.2479 4.95797C62.2427 4.92934 62.2305 4.90246 62.2123 4.87972C62.1941 4.85698 62.1706 4.83909 62.1439 4.82764C55.302 1.89488 46.4314 3.38946 40.7985 8.98179C35.4089 14.3309 35.1022 22.3766 37.0762 29.3983C37.3567 30.3964 37.356 31.4525 37.0742 32.4502C36.7924 33.4479 36.2405 34.3484 35.4794 35.0523L6.11656 61.8684C5.25024 62.6365 4.55019 63.5737 4.05943 64.6223C3.56868 65.671 3.2976 66.8089 3.26286 67.9662C3.22812 69.1234 3.43045 70.2756 3.85742 71.3518C4.28439 72.428 4.92697 73.4055 5.74565 74.2241C6.56433 75.0428 7.54182 75.6854 8.61801 76.1124C9.6942 76.5393 10.8463 76.7417 12.0036 76.7069C13.1609 76.6722 14.2988 76.4011 15.3475 75.9104C16.3961 75.4196 17.3333 74.7195 18.1014 73.8532L45.2188 44.4199C45.9138 43.6716 46.7993 43.1265 47.7804 42.843C48.7615 42.5595 49.8013 42.5484 50.7883 42.8107C57.7571 44.6772 65.6882 44.3265 71.0074 39.0761C76.7337 33.4361 77.9691 23.4676 75.1932 17.7624C75.1807 17.7375 75.1625 17.7159 75.14 17.6994C75.1176 17.6829 75.0915 17.6719 75.064 17.6675C75.0364 17.663 75.0082 17.6651 74.9817 17.6737C74.9551 17.6822 74.931 17.6969 74.9113 17.7166L64.2553 28.3814Z" stroke="url(#paint0_linear_477_1347)" stroke-width="5.63992" stroke-miterlimit="10" stroke-linecap="round"/>
<defs>
<linearGradient id="paint0_linear_477_1347" x1="3.25903" y1="-5.37402" x2="100.588" y2="65.722" gradientUnits="userSpaceOnUse">
<stop offset="0.181667" stop-color="#DCA64E"/>
<stop offset="0.494792" stop-color="#FEFAB7"/>
<stop offset="0.896667" stop-color="#D6993F"/>
</linearGradient>
</defs>
</svg>
