<svg width="223" height="233" viewBox="0 0 223 233" fill="none" xmlns="http://www.w3.org/2000/svg">
<g opacity="0.5" filter="url(#filter0_f_477_1248)">
<path d="M111.447 144.036C129.774 144.036 144.632 129.179 144.632 110.851C144.632 92.5238 129.774 77.6665 111.447 77.6665C93.1195 77.6665 78.2622 92.5238 78.2622 110.851C78.2622 129.179 93.1195 144.036 111.447 144.036Z" fill="url(#paint0_linear_477_1248)"/>
</g>
<g opacity="0.5" filter="url(#filter1_f_477_1248)">
<path d="M60.1083 180.238C68.7897 180.238 75.8275 173.2 75.8275 164.519C75.8275 155.837 68.7897 148.8 60.1083 148.8C51.4268 148.8 44.3892 155.837 44.3892 164.519C44.3892 173.2 51.4268 180.238 60.1083 180.238Z" fill="url(#paint1_linear_477_1248)"/>
</g>
<path d="M110.459 156.879C110.459 156.879 113.952 155.133 117.445 153.386C118.259 152.981 119.192 151.64 119.192 149.893C119.192 149.02 119.192 148.147 119.192 148.147" stroke="url(#paint2_linear_477_1248)" stroke-width="2.25819" stroke-miterlimit="10"/>
<path d="M129.671 148.147C129.671 148.147 129.671 149.02 129.671 149.893C129.671 151.64 130.604 152.981 131.418 153.386C138.405 156.879 141.529 158.443 141.529 158.443C142.652 159.003 143.639 159.871 144.346 161.019C145.057 162.163 145.39 163.434 145.39 164.69V169.106L144.129 169.734C141.171 171.215 137.997 172.384 134.633 173.177C131.273 173.972 127.741 174.345 124.432 174.345" stroke="url(#paint3_linear_477_1248)" stroke-width="2.25819" stroke-miterlimit="10"/>
<path d="M118.257 129.747C119.96 128.04 122.198 127.188 124.432 127.188C126.666 127.188 128.903 128.04 130.606 129.747C132.312 131.451 133.164 133.687 133.164 135.921L133.161 139.414C133.161 144.088 130.253 149.893 124.432 149.893C118.612 149.893 115.702 144.088 115.702 139.414L115.699 135.921C115.699 133.687 116.551 131.451 118.257 129.747Z" stroke="url(#paint4_linear_477_1248)" stroke-width="2.25819" stroke-miterlimit="10"/>
<path d="M82.5139 141.16V148.147C82.5139 149.893 81.6407 151.203 80.7675 151.64C77.2743 153.386 73.7811 155.133 70.288 156.879C62.5891 160.729 56.3154 163.866 56.3154 172.599V188.318" stroke="url(#paint5_linear_477_1248)" stroke-width="2.25819" stroke-miterlimit="10"/>
<path d="M126.178 188.318V172.599C126.178 163.866 119.904 160.729 112.205 156.879C108.712 155.133 105.219 153.386 101.726 151.64C100.853 151.203 99.9795 149.893 99.9795 148.147V141.16" stroke="url(#paint6_linear_477_1248)" stroke-width="2.25819" stroke-miterlimit="10"/>
<path d="M101.726 151.64C101.726 157.428 97.0331 162.119 91.2467 162.119C85.4603 162.119 80.7673 157.428 80.7673 151.64" stroke="url(#paint7_linear_477_1248)" stroke-width="2.25819" stroke-miterlimit="10" stroke-linejoin="round"/>
<path d="M71.4875 188.318V183.802" stroke="url(#paint8_linear_477_1248)" stroke-width="2.25819" stroke-miterlimit="10"/>
<path d="M112.135 188.318V183.802" stroke="url(#paint9_linear_477_1248)" stroke-width="2.25819" stroke-miterlimit="10"/>
<path d="M106.966 123.695C106.966 122.353 106.454 121.014 105.431 119.99C104.407 118.967 103.068 118.455 101.726 118.455H99.9796C99.0854 118.455 98.1928 118.115 97.5099 117.432C96.8271 116.749 96.4864 115.856 96.4864 114.962L92.9933 118.455H80.7674C79.4259 118.455 78.0863 118.967 77.0628 119.99C76.0394 121.014 75.5276 122.353 75.5276 123.695" stroke="url(#paint10_linear_477_1248)" stroke-width="2.25819" stroke-miterlimit="10" stroke-linejoin="round"/>
<path d="M75.5276 118.455C75.5276 114.433 77.0628 110.41 80.1316 107.342C83.2021 104.271 87.2226 102.736 91.2467 102.736C95.2708 102.736 99.2914 104.271 102.362 107.342C105.431 110.41 106.966 114.433 106.966 118.455V127.188C106.966 127.635 106.795 128.082 106.454 128.423C106.114 128.763 105.666 128.934 105.219 128.934C105.219 136.122 100.561 144.654 91.2467 144.654C81.9306 144.654 77.2742 136.122 77.2742 128.934C76.8271 128.934 76.3799 128.763 76.0394 128.423C75.6988 128.082 75.5276 127.635 75.5276 127.188V118.455Z" stroke="url(#paint11_linear_477_1248)" stroke-width="2.25819" stroke-miterlimit="10" stroke-linejoin="round"/>
<path d="M115.699 108.487H119.192" stroke="url(#paint12_linear_477_1248)" stroke-width="2.25819" stroke-miterlimit="10"/>
<path d="M122.685 108.487H126.178" stroke="url(#paint13_linear_477_1248)" stroke-width="2.25819" stroke-miterlimit="10"/>
<path d="M129.671 108.487H133.164" stroke="url(#paint14_linear_477_1248)" stroke-width="2.25819" stroke-miterlimit="10"/>
<path d="M103.102 103.184V96.8611H144.879V118.991H140.212V120.469" stroke="url(#paint15_linear_477_1248)" stroke-width="2.25819" stroke-miterlimit="10"/>
<path d="M112.206 118.455H133.164L140.15 125.441V120.202" stroke="url(#paint16_linear_477_1248)" stroke-width="2.25819" stroke-miterlimit="10" stroke-linejoin="round"/>
<path d="M41.002 107.023H76.0039" stroke="url(#paint17_linear_477_1248)" stroke-width="2.25819" stroke-miterlimit="10"/>
<path d="M41.002 114.927H65.8421" stroke="url(#paint18_linear_477_1248)" stroke-width="2.25819" stroke-miterlimit="10"/>
<path d="M38.2922 132.992V131.11H33.0984V93.4739H85.0368V99.1194" stroke="url(#paint19_linear_477_1248)" stroke-width="2.25819" stroke-miterlimit="10"/>
<path d="M38.1792 131.863V138.638L45.5183 130.734H70.3584" stroke="url(#paint20_linear_477_1248)" stroke-width="2.25819" stroke-miterlimit="10" stroke-linejoin="round"/>
<defs>
<filter id="filter0_f_477_1248" x="0.806252" y="0.210548" width="221.281" height="221.282" filterUnits="userSpaceOnUse" color-interpolation-filters="sRGB">
<feFlood flood-opacity="0" result="BackgroundImageFix"/>
<feBlend mode="normal" in="SourceGraphic" in2="BackgroundImageFix" result="shape"/>
<feGaussianBlur stdDeviation="38.728" result="effect1_foregroundBlur_477_1248"/>
</filter>
<filter id="filter1_f_477_1248" x="0.354435" y="104.765" width="119.508" height="119.508" filterUnits="userSpaceOnUse" color-interpolation-filters="sRGB">
<feFlood flood-opacity="0" result="BackgroundImageFix"/>
<feBlend mode="normal" in="SourceGraphic" in2="BackgroundImageFix" result="shape"/>
<feGaussianBlur stdDeviation="22.0174" result="effect1_foregroundBlur_477_1248"/>
</filter>
<linearGradient id="paint0_linear_477_1248" x1="78.2622" y1="69.7654" x2="166.325" y2="134.089" gradientUnits="userSpaceOnUse">
<stop offset="0.181667" stop-color="#DCA64E"/>
<stop offset="0.494792" stop-color="#FEFAB7"/>
<stop offset="0.896667" stop-color="#D6993F"/>
</linearGradient>
<linearGradient id="paint1_linear_477_1248" x1="44.3892" y1="145.057" x2="86.1033" y2="175.526" gradientUnits="userSpaceOnUse">
<stop offset="0.181667" stop-color="#DCA64E"/>
<stop offset="0.494792" stop-color="#FEFAB7"/>
<stop offset="0.896667" stop-color="#D6993F"/>
</linearGradient>
<linearGradient id="paint2_linear_477_1248" x1="110.459" y1="147.107" x2="122.046" y2="155.571" gradientUnits="userSpaceOnUse">
<stop offset="0.181667" stop-color="#DCA64E"/>
<stop offset="0.494792" stop-color="#FEFAB7"/>
<stop offset="0.896667" stop-color="#D6993F"/>
</linearGradient>
<linearGradient id="paint3_linear_477_1248" x1="124.432" y1="145.028" x2="156.223" y2="163.605" gradientUnits="userSpaceOnUse">
<stop offset="0.181667" stop-color="#DCA64E"/>
<stop offset="0.494792" stop-color="#FEFAB7"/>
<stop offset="0.896667" stop-color="#D6993F"/>
</linearGradient>
<linearGradient id="paint4_linear_477_1248" x1="115.699" y1="124.485" x2="142.71" y2="139.662" gradientUnits="userSpaceOnUse">
<stop offset="0.181667" stop-color="#DCA64E"/>
<stop offset="0.494792" stop-color="#FEFAB7"/>
<stop offset="0.896667" stop-color="#D6993F"/>
</linearGradient>
<linearGradient id="paint5_linear_477_1248" x1="56.3154" y1="135.546" x2="102.087" y2="154.12" gradientUnits="userSpaceOnUse">
<stop offset="0.181667" stop-color="#DCA64E"/>
<stop offset="0.494792" stop-color="#FEFAB7"/>
<stop offset="0.896667" stop-color="#D6993F"/>
</linearGradient>
<linearGradient id="paint6_linear_477_1248" x1="99.9795" y1="135.546" x2="145.751" y2="154.12" gradientUnits="userSpaceOnUse">
<stop offset="0.181667" stop-color="#DCA64E"/>
<stop offset="0.494792" stop-color="#FEFAB7"/>
<stop offset="0.896667" stop-color="#D6993F"/>
</linearGradient>
<linearGradient id="paint7_linear_477_1248" x1="80.7673" y1="150.392" x2="94.3746" y2="170.271" gradientUnits="userSpaceOnUse">
<stop offset="0.181667" stop-color="#DCA64E"/>
<stop offset="0.494792" stop-color="#FEFAB7"/>
<stop offset="0.896667" stop-color="#D6993F"/>
</linearGradient>
<linearGradient id="paint8_linear_477_1248" x1="71.4875" y1="183.264" x2="73.4705" y2="183.585" gradientUnits="userSpaceOnUse">
<stop offset="0.181667" stop-color="#DCA64E"/>
<stop offset="0.494792" stop-color="#FEFAB7"/>
<stop offset="0.896667" stop-color="#D6993F"/>
</linearGradient>
<linearGradient id="paint9_linear_477_1248" x1="112.135" y1="183.264" x2="114.118" y2="183.585" gradientUnits="userSpaceOnUse">
<stop offset="0.181667" stop-color="#DCA64E"/>
<stop offset="0.494792" stop-color="#FEFAB7"/>
<stop offset="0.896667" stop-color="#D6993F"/>
</linearGradient>
<linearGradient id="paint10_linear_477_1248" x1="75.5276" y1="113.922" x2="83.6101" y2="135.176" gradientUnits="userSpaceOnUse">
<stop offset="0.181667" stop-color="#DCA64E"/>
<stop offset="0.494792" stop-color="#FEFAB7"/>
<stop offset="0.896667" stop-color="#D6993F"/>
</linearGradient>
<linearGradient id="paint11_linear_477_1248" x1="75.5276" y1="97.7458" x2="124.731" y2="124.701" gradientUnits="userSpaceOnUse">
<stop offset="0.181667" stop-color="#DCA64E"/>
<stop offset="0.494792" stop-color="#FEFAB7"/>
<stop offset="0.896667" stop-color="#D6993F"/>
</linearGradient>
<linearGradient id="paint12_linear_477_1248" x1="115.699" y1="108.368" x2="116.645" y2="110.783" gradientUnits="userSpaceOnUse">
<stop offset="0.181667" stop-color="#DCA64E"/>
<stop offset="0.494792" stop-color="#FEFAB7"/>
<stop offset="0.896667" stop-color="#D6993F"/>
</linearGradient>
<linearGradient id="paint13_linear_477_1248" x1="122.685" y1="108.368" x2="123.631" y2="110.783" gradientUnits="userSpaceOnUse">
<stop offset="0.181667" stop-color="#DCA64E"/>
<stop offset="0.494792" stop-color="#FEFAB7"/>
<stop offset="0.896667" stop-color="#D6993F"/>
</linearGradient>
<linearGradient id="paint14_linear_477_1248" x1="129.671" y1="108.368" x2="130.618" y2="110.783" gradientUnits="userSpaceOnUse">
<stop offset="0.181667" stop-color="#DCA64E"/>
<stop offset="0.494792" stop-color="#FEFAB7"/>
<stop offset="0.896667" stop-color="#D6993F"/>
</linearGradient>
<linearGradient id="paint15_linear_477_1248" x1="103.102" y1="94.0507" x2="134.93" y2="135.191" gradientUnits="userSpaceOnUse">
<stop offset="0.181667" stop-color="#DCA64E"/>
<stop offset="0.494792" stop-color="#FEFAB7"/>
<stop offset="0.896667" stop-color="#D6993F"/>
</linearGradient>
<linearGradient id="paint16_linear_477_1248" x1="112.206" y1="117.623" x2="118.168" y2="135.044" gradientUnits="userSpaceOnUse">
<stop offset="0.181667" stop-color="#DCA64E"/>
<stop offset="0.494792" stop-color="#FEFAB7"/>
<stop offset="0.896667" stop-color="#D6993F"/>
</linearGradient>
<linearGradient id="paint17_linear_477_1248" x1="41.002" y1="106.904" x2="41.1107" y2="109.685" gradientUnits="userSpaceOnUse">
<stop offset="0.181667" stop-color="#DCA64E"/>
<stop offset="0.494792" stop-color="#FEFAB7"/>
<stop offset="0.896667" stop-color="#D6993F"/>
</linearGradient>
<linearGradient id="paint18_linear_477_1248" x1="41.002" y1="114.808" x2="41.155" y2="117.585" gradientUnits="userSpaceOnUse">
<stop offset="0.181667" stop-color="#DCA64E"/>
<stop offset="0.494792" stop-color="#FEFAB7"/>
<stop offset="0.896667" stop-color="#D6993F"/>
</linearGradient>
<linearGradient id="paint19_linear_477_1248" x1="33.0984" y1="88.7693" x2="88.096" y2="141.567" gradientUnits="userSpaceOnUse">
<stop offset="0.181667" stop-color="#DCA64E"/>
<stop offset="0.494792" stop-color="#FEFAB7"/>
<stop offset="0.896667" stop-color="#D6993F"/>
</linearGradient>
<linearGradient id="paint20_linear_477_1248" x1="38.1792" y1="129.793" x2="44.8306" y2="149.574" gradientUnits="userSpaceOnUse">
<stop offset="0.181667" stop-color="#DCA64E"/>
<stop offset="0.494792" stop-color="#FEFAB7"/>
<stop offset="0.896667" stop-color="#D6993F"/>
</linearGradient>
</defs>
</svg>
